<svg aria-hidden="true" style="position: absolute; width: 0; height: 0; overflow: hidden;" version="1.1" xmlns="http://www.w3.org/2000/svg" xmlns:xlink="http://www.w3.org/1999/xlink">
<defs>
<symbol id="icon-quotes" viewBox="0 0 45 32">
<path   d="M0 19.2h9.6l-6.4 12.8h9.6l6.4-12.8v-19.2h-19.2v19.2zM25.6 0v19.2h9.6l-6.4 12.8h9.6l6.4-12.8v-19.2h-19.2z"></path>
</symbol>
<symbol id="icon-menu" viewBox="0 0 45 32">
<path d="M45.474 26.105h-45.474v5.053h45.474v-5.053z"></path>
<path d="M45.474 13.474h-45.474v5.053h45.474v-5.053z"></path>
<path d="M45.474 0.842h-45.474v5.053h45.474v-5.053z"></path>
</symbol>
<symbol id="icon-search" viewBox="0 0 32 32">
<path d="M31.558 29.221l-5.922-5.916c4.531-5.638 4.094-13.975-1.073-19.097-2.703-2.7-6.32-4.208-10.175-4.208s-7.432 1.509-10.175 4.208c-2.703 2.7-4.213 6.313-4.213 10.164s1.51 7.424 4.213 10.164c2.703 2.7 6.319 4.208 10.175 4.208 3.259 0 6.439-1.112 8.982-3.136l5.922 5.916c0.318 0.318 0.716 0.476 1.113 0.476 0.437 0 0.835-0.159 1.113-0.476 0.636-0.675 0.636-1.668 0.040-2.303zM25.596 14.332c0 2.978-1.153 5.796-3.259 7.901s-4.928 3.256-7.909 3.256c-2.981 0-5.803-1.151-7.909-3.256s-3.259-4.923-3.259-7.901c0-2.978 1.153-5.797 3.259-7.901s4.928-3.256 7.909-3.256c2.981 0 5.803 1.151 7.909 3.256s3.259 4.923 3.259 7.901z"></path>
</symbol>
<symbol id="icon-blleft" viewBox="0 0 17 32">
<path stroke-linejoin="miter" stroke-linecap="butt" stroke-miterlimit="4" stroke-width="1.3061" d="M15.666 31.347c-0.173 0-0.339-0.070-0.462-0.195l-14.36-14.676c-0.255-0.261-0.255-0.683 0-0.943l14.36-14.676c0.25-0.265 0.664-0.272 0.923-0.016s0.266 0.678 0.016 0.943c-0.005 0.006-0.011 0.011-0.016 0.016l-13.898 14.204 13.899 14.204c0.255 0.26 0.256 0.683 0.001 0.943-0.123 0.126-0.29 0.196-0.463 0.196z"></path>
</symbol>
<symbol id="icon-blright" viewBox="0 0 17 32">
<path stroke-linejoin="miter" stroke-linecap="butt" stroke-miterlimit="4" stroke-width="1.3061" d="M1.313 0.653c0.173-0 0.34 0.070 0.462 0.195l14.36 14.676c0.255 0.261 0.255 0.683 0 0.943l-14.36 14.676c-0.25 0.265-0.664 0.272-0.923 0.016s-0.266-0.678-0.016-0.943c0.005-0.006 0.011-0.011 0.016-0.016l13.898-14.204-13.899-14.204c-0.255-0.26-0.256-0.683-0.001-0.943 0.123-0.126 0.29-0.196 0.463-0.196z"></path>
</symbol>
<symbol id="icon-wleft" viewBox="0 0 18 32">
<path fill="#fff" style="fill: var(--color1, #fff))" stroke-linejoin="miter" stroke-linecap="butt" stroke-miterlimit="4" stroke-width="1.3061" d="M15.997 31.347c-0.177 0-0.347-0.070-0.472-0.195l-14.676-14.676c-0.26-0.261-0.26-0.683 0-0.943l14.676-14.676c0.256-0.265 0.678-0.272 0.943-0.016s0.272 0.678 0.016 0.943c-0.005 0.006-0.011 0.011-0.016 0.016l-14.204 14.204 14.205 14.204c0.261 0.26 0.261 0.683 0.001 0.943-0.125 0.126-0.296 0.196-0.473 0.196z"></path>
</symbol>
<symbol id="icon-wright" viewBox="0 0 18 32">
<path fill="#fff" style="fill: var(--color1, #fff))"  stroke-linejoin="miter" stroke-linecap="butt" stroke-miterlimit="4" stroke-width="1.3061" d="M1.673 0.653c0.177-0 0.347 0.070 0.472 0.195l14.676 14.676c0.26 0.261 0.26 0.683 0 0.943l-14.676 14.676c-0.256 0.265-0.678 0.272-0.943 0.016s-0.272-0.678-0.016-0.943c0.005-0.006 0.011-0.011 0.016-0.016l14.204-14.204-14.205-14.204c-0.261-0.26-0.261-0.683-0.001-0.943 0.125-0.126 0.296-0.196 0.474-0.196z"></path>
</symbol>
<symbol id="icon-cross" viewBox="0 0 32 32">
<path d="M31.708 25.708c-0-0-0-0-0-0l-9.708-9.708 9.708-9.708c0-0 0-0 0-0 0.105-0.105 0.18-0.227 0.229-0.357 0.133-0.356 0.057-0.771-0.229-1.057l-4.586-4.586c-0.286-0.286-0.702-0.361-1.057-0.229-0.13 0.048-0.252 0.124-0.357 0.228 0 0-0 0-0 0l-9.708 9.708-9.708-9.708c-0-0-0-0-0-0-0.105-0.104-0.227-0.18-0.357-0.228-0.356-0.133-0.771-0.057-1.057 0.229l-4.586 4.586c-0.286 0.286-0.361 0.702-0.229 1.057 0.049 0.13 0.124 0.252 0.229 0.357 0 0 0 0 0 0l9.708 9.708-9.708 9.708c-0 0-0 0-0 0-0.104 0.105-0.18 0.227-0.229 0.357-0.133 0.355-0.057 0.771 0.229 1.057l4.586 4.586c0.286 0.286 0.702 0.361 1.057 0.229 0.13-0.049 0.252-0.124 0.357-0.229 0-0 0-0 0-0l9.708-9.708 9.708 9.708c0 0 0 0 0 0 0.105 0.105 0.227 0.18 0.357 0.229 0.356 0.133 0.771 0.057 1.057-0.229l4.586-4.586c0.286-0.286 0.362-0.702 0.229-1.057-0.049-0.13-0.124-0.252-0.229-0.357z"></path>
</symbol>
</defs>
</svg>
